<?xml version="1.0" encoding="utf-8" standalone="no"?>
<!DOCTYPE svg PUBLIC "-//W3C//DTD SVG 1.1//EN"
  "http://www.w3.org/Graphics/SVG/1.1/DTD/svg11.dtd">
<svg xmlns:xlink="http://www.w3.org/1999/xlink" width="864pt" height="432pt" viewBox="0 0 864 432" xmlns="http://www.w3.org/2000/svg" version="1.1">
 <metadata>
  <rdf:RDF xmlns:dc="http://purl.org/dc/elements/1.1/" xmlns:cc="http://creativecommons.org/ns#" xmlns:rdf="http://www.w3.org/1999/02/22-rdf-syntax-ns#">
   <cc:Work>
    <dc:type rdf:resource="http://purl.org/dc/dcmitype/StillImage"/>
    <dc:date>2025-04-10T11:10:09.585015</dc:date>
    <dc:format>image/svg+xml</dc:format>
    <dc:creator>
     <cc:Agent>
      <dc:title>Matplotlib v3.10.1, https://matplotlib.org/</dc:title>
     </cc:Agent>
    </dc:creator>
   </cc:Work>
  </rdf:RDF>
 </metadata>
 <defs>
  <style type="text/css">*{stroke-linejoin: round; stroke-linecap: butt}</style>
 </defs>
 <g id="figure_1">
  <g id="patch_1">
   <path d="M 0 432 
L 864 432 
L 864 0 
L 0 0 
z
" style="fill: #ffffff"/>
  </g>
  <g id="axes_1">
   <g id="patch_2">
    <path d="M 72.36 307.871932 
L 851.04 307.871932 
L 851.04 28.32 
L 72.36 28.32 
z
" style="fill: #ffffff"/>
   </g>
   <g id="matplotlib.axis_1">
    <g id="xtick_1">
     <g id="line2d_1">
      <path d="M 90.057273 307.871932 
L 90.057273 28.32 
" clip-path="url(#p127efa4f02)" style="fill: none; stroke: #cccccc; stroke-linecap: round"/>
     </g>
     <g id="text_1">
      <!-- air -->
      <g style="fill: #262626" transform="translate(78.31466 333.407125) rotate(-45) scale(0.11 -0.11)">
       <defs>
        <path id="DejaVuSans-61" d="M 2194 1759 
Q 1497 1759 1228 1600 
Q 959 1441 959 1056 
Q 959 750 1161 570 
Q 1363 391 1709 391 
Q 2188 391 2477 730 
Q 2766 1069 2766 1631 
L 2766 1759 
L 2194 1759 
z
M 3341 1997 
L 3341 0 
L 2766 0 
L 2766 531 
Q 2569 213 2275 61 
Q 1981 -91 1556 -91 
Q 1019 -91 701 211 
Q 384 513 384 1019 
Q 384 1609 779 1909 
Q 1175 2209 1959 2209 
L 2766 2209 
L 2766 2266 
Q 2766 2663 2505 2880 
Q 2244 3097 1772 3097 
Q 1472 3097 1187 3025 
Q 903 2953 641 2809 
L 641 3341 
Q 956 3463 1253 3523 
Q 1550 3584 1831 3584 
Q 2591 3584 2966 3190 
Q 3341 2797 3341 1997 
z
" transform="scale(0.015625)"/>
        <path id="DejaVuSans-69" d="M 603 3500 
L 1178 3500 
L 1178 0 
L 603 0 
L 603 3500 
z
M 603 4863 
L 1178 4863 
L 1178 4134 
L 603 4134 
L 603 4863 
z
" transform="scale(0.015625)"/>
        <path id="DejaVuSans-72" d="M 2631 2963 
Q 2534 3019 2420 3045 
Q 2306 3072 2169 3072 
Q 1681 3072 1420 2755 
Q 1159 2438 1159 1844 
L 1159 0 
L 581 0 
L 581 3500 
L 1159 3500 
L 1159 2956 
Q 1341 3275 1631 3429 
Q 1922 3584 2338 3584 
Q 2397 3584 2469 3576 
Q 2541 3569 2628 3553 
L 2631 2963 
z
" transform="scale(0.015625)"/>
       </defs>
       <use xlink:href="#DejaVuSans-61"/>
       <use xlink:href="#DejaVuSans-69" transform="translate(61.279297 0)"/>
       <use xlink:href="#DejaVuSans-72" transform="translate(89.0625 0)"/>
      </g>
     </g>
    </g>
    <g id="xtick_2">
     <g id="line2d_2">
      <path d="M 125.451818 307.871932 
L 125.451818 28.32 
" clip-path="url(#p127efa4f02)" style="fill: none; stroke: #cccccc; stroke-linecap: round"/>
     </g>
     <g id="text_2">
      <!-- aquifer -->
      <g style="fill: #262626" transform="translate(96.317693 350.798637) rotate(-45) scale(0.11 -0.11)">
       <defs>
        <path id="DejaVuSans-71" d="M 947 1747 
Q 947 1113 1208 752 
Q 1469 391 1925 391 
Q 2381 391 2643 752 
Q 2906 1113 2906 1747 
Q 2906 2381 2643 2742 
Q 2381 3103 1925 3103 
Q 1469 3103 1208 2742 
Q 947 2381 947 1747 
z
M 2906 525 
Q 2725 213 2448 61 
Q 2172 -91 1784 -91 
Q 1150 -91 751 415 
Q 353 922 353 1747 
Q 353 2572 751 3078 
Q 1150 3584 1784 3584 
Q 2172 3584 2448 3432 
Q 2725 3281 2906 2969 
L 2906 3500 
L 3481 3500 
L 3481 -1331 
L 2906 -1331 
L 2906 525 
z
" transform="scale(0.015625)"/>
        <path id="DejaVuSans-75" d="M 544 1381 
L 544 3500 
L 1119 3500 
L 1119 1403 
Q 1119 906 1312 657 
Q 1506 409 1894 409 
Q 2359 409 2629 706 
Q 2900 1003 2900 1516 
L 2900 3500 
L 3475 3500 
L 3475 0 
L 2900 0 
L 2900 538 
Q 2691 219 2414 64 
Q 2138 -91 1772 -91 
Q 1169 -91 856 284 
Q 544 659 544 1381 
z
M 1991 3584 
L 1991 3584 
z
" transform="scale(0.015625)"/>
        <path id="DejaVuSans-66" d="M 2375 4863 
L 2375 4384 
L 1825 4384 
Q 1516 4384 1395 4259 
Q 1275 4134 1275 3809 
L 1275 3500 
L 2222 3500 
L 2222 3053 
L 1275 3053 
L 1275 0 
L 697 0 
L 697 3053 
L 147 3053 
L 147 3500 
L 697 3500 
L 697 3744 
Q 697 4328 969 4595 
Q 1241 4863 1831 4863 
L 2375 4863 
z
" transform="scale(0.015625)"/>
        <path id="DejaVuSans-65" d="M 3597 1894 
L 3597 1613 
L 953 1613 
Q 991 1019 1311 708 
Q 1631 397 2203 397 
Q 2534 397 2845 478 
Q 3156 559 3463 722 
L 3463 178 
Q 3153 47 2828 -22 
Q 2503 -91 2169 -91 
Q 1331 -91 842 396 
Q 353 884 353 1716 
Q 353 2575 817 3079 
Q 1281 3584 2069 3584 
Q 2775 3584 3186 3129 
Q 3597 2675 3597 1894 
z
M 3022 2063 
Q 3016 2534 2758 2815 
Q 2500 3097 2075 3097 
Q 1594 3097 1305 2825 
Q 1016 2553 972 2059 
L 3022 2063 
z
" transform="scale(0.015625)"/>
       </defs>
       <use xlink:href="#DejaVuSans-61"/>
       <use xlink:href="#DejaVuSans-71" transform="translate(61.279297 0)"/>
       <use xlink:href="#DejaVuSans-75" transform="translate(124.755859 0)"/>
       <use xlink:href="#DejaVuSans-69" transform="translate(188.134766 0)"/>
       <use xlink:href="#DejaVuSans-66" transform="translate(215.917969 0)"/>
       <use xlink:href="#DejaVuSans-65" transform="translate(251.123047 0)"/>
       <use xlink:href="#DejaVuSans-72" transform="translate(312.646484 0)"/>
      </g>
     </g>
    </g>
    <g id="xtick_3">
     <g id="line2d_3">
      <path d="M 160.846364 307.871932 
L 160.846364 28.32 
" clip-path="url(#p127efa4f02)" style="fill: none; stroke: #cccccc; stroke-linecap: round"/>
     </g>
     <g id="text_3">
      <!-- bovineGut -->
      <g style="fill: #262626" transform="translate(119.045967 363.464908) rotate(-45) scale(0.11 -0.11)">
       <defs>
        <path id="DejaVuSans-62" d="M 3116 1747 
Q 3116 2381 2855 2742 
Q 2594 3103 2138 3103 
Q 1681 3103 1420 2742 
Q 1159 2381 1159 1747 
Q 1159 1113 1420 752 
Q 1681 391 2138 391 
Q 2594 391 2855 752 
Q 3116 1113 3116 1747 
z
M 1159 2969 
Q 1341 3281 1617 3432 
Q 1894 3584 2278 3584 
Q 2916 3584 3314 3078 
Q 3713 2572 3713 1747 
Q 3713 922 3314 415 
Q 2916 -91 2278 -91 
Q 1894 -91 1617 61 
Q 1341 213 1159 525 
L 1159 0 
L 581 0 
L 581 4863 
L 1159 4863 
L 1159 2969 
z
" transform="scale(0.015625)"/>
        <path id="DejaVuSans-6f" d="M 1959 3097 
Q 1497 3097 1228 2736 
Q 959 2375 959 1747 
Q 959 1119 1226 758 
Q 1494 397 1959 397 
Q 2419 397 2687 759 
Q 2956 1122 2956 1747 
Q 2956 2369 2687 2733 
Q 2419 3097 1959 3097 
z
M 1959 3584 
Q 2709 3584 3137 3096 
Q 3566 2609 3566 1747 
Q 3566 888 3137 398 
Q 2709 -91 1959 -91 
Q 1206 -91 779 398 
Q 353 888 353 1747 
Q 353 2609 779 3096 
Q 1206 3584 1959 3584 
z
" transform="scale(0.015625)"/>
        <path id="DejaVuSans-76" d="M 191 3500 
L 800 3500 
L 1894 563 
L 2988 3500 
L 3597 3500 
L 2284 0 
L 1503 0 
L 191 3500 
z
" transform="scale(0.015625)"/>
        <path id="DejaVuSans-6e" d="M 3513 2113 
L 3513 0 
L 2938 0 
L 2938 2094 
Q 2938 2591 2744 2837 
Q 2550 3084 2163 3084 
Q 1697 3084 1428 2787 
Q 1159 2491 1159 1978 
L 1159 0 
L 581 0 
L 581 3500 
L 1159 3500 
L 1159 2956 
Q 1366 3272 1645 3428 
Q 1925 3584 2291 3584 
Q 2894 3584 3203 3211 
Q 3513 2838 3513 2113 
z
" transform="scale(0.015625)"/>
        <path id="DejaVuSans-47" d="M 3809 666 
L 3809 1919 
L 2778 1919 
L 2778 2438 
L 4434 2438 
L 4434 434 
Q 4069 175 3628 42 
Q 3188 -91 2688 -91 
Q 1594 -91 976 548 
Q 359 1188 359 2328 
Q 359 3472 976 4111 
Q 1594 4750 2688 4750 
Q 3144 4750 3555 4637 
Q 3966 4525 4313 4306 
L 4313 3634 
Q 3963 3931 3569 4081 
Q 3175 4231 2741 4231 
Q 1884 4231 1454 3753 
Q 1025 3275 1025 2328 
Q 1025 1384 1454 906 
Q 1884 428 2741 428 
Q 3075 428 3337 486 
Q 3600 544 3809 666 
z
" transform="scale(0.015625)"/>
        <path id="DejaVuSans-74" d="M 1172 4494 
L 1172 3500 
L 2356 3500 
L 2356 3053 
L 1172 3053 
L 1172 1153 
Q 1172 725 1289 603 
Q 1406 481 1766 481 
L 2356 481 
L 2356 0 
L 1766 0 
Q 1100 0 847 248 
Q 594 497 594 1153 
L 594 3053 
L 172 3053 
L 172 3500 
L 594 3500 
L 594 4494 
L 1172 4494 
z
" transform="scale(0.015625)"/>
       </defs>
       <use xlink:href="#DejaVuSans-62"/>
       <use xlink:href="#DejaVuSans-6f" transform="translate(63.476562 0)"/>
       <use xlink:href="#DejaVuSans-76" transform="translate(124.658203 0)"/>
       <use xlink:href="#DejaVuSans-69" transform="translate(183.837891 0)"/>
       <use xlink:href="#DejaVuSans-6e" transform="translate(211.621094 0)"/>
       <use xlink:href="#DejaVuSans-65" transform="translate(275 0)"/>
       <use xlink:href="#DejaVuSans-47" transform="translate(336.523438 0)"/>
       <use xlink:href="#DejaVuSans-75" transform="translate(414.013672 0)"/>
       <use xlink:href="#DejaVuSans-74" transform="translate(477.392578 0)"/>
      </g>
     </g>
    </g>
    <g id="xtick_4">
     <g id="line2d_4">
      <path d="M 196.240909 307.871932 
L 196.240909 28.32 
" clip-path="url(#p127efa4f02)" style="fill: none; stroke: #cccccc; stroke-linecap: round"/>
     </g>
     <g id="text_4">
      <!-- chickenGut -->
      <g style="fill: #262626" transform="translate(151.036346 366.869075) rotate(-45) scale(0.11 -0.11)">
       <defs>
        <path id="DejaVuSans-63" d="M 3122 3366 
L 3122 2828 
Q 2878 2963 2633 3030 
Q 2388 3097 2138 3097 
Q 1578 3097 1268 2742 
Q 959 2388 959 1747 
Q 959 1106 1268 751 
Q 1578 397 2138 397 
Q 2388 397 2633 464 
Q 2878 531 3122 666 
L 3122 134 
Q 2881 22 2623 -34 
Q 2366 -91 2075 -91 
Q 1284 -91 818 406 
Q 353 903 353 1747 
Q 353 2603 823 3093 
Q 1294 3584 2113 3584 
Q 2378 3584 2631 3529 
Q 2884 3475 3122 3366 
z
" transform="scale(0.015625)"/>
        <path id="DejaVuSans-68" d="M 3513 2113 
L 3513 0 
L 2938 0 
L 2938 2094 
Q 2938 2591 2744 2837 
Q 2550 3084 2163 3084 
Q 1697 3084 1428 2787 
Q 1159 2491 1159 1978 
L 1159 0 
L 581 0 
L 581 4863 
L 1159 4863 
L 1159 2956 
Q 1366 3272 1645 3428 
Q 1925 3584 2291 3584 
Q 2894 3584 3203 3211 
Q 3513 2838 3513 2113 
z
" transform="scale(0.015625)"/>
        <path id="DejaVuSans-6b" d="M 581 4863 
L 1159 4863 
L 1159 1991 
L 2875 3500 
L 3609 3500 
L 1753 1863 
L 3688 0 
L 2938 0 
L 1159 1709 
L 1159 0 
L 581 0 
L 581 4863 
z
" transform="scale(0.015625)"/>
       </defs>
       <use xlink:href="#DejaVuSans-63"/>
       <use xlink:href="#DejaVuSans-68" transform="translate(54.980469 0)"/>
       <use xlink:href="#DejaVuSans-69" transform="translate(118.359375 0)"/>
       <use xlink:href="#DejaVuSans-63" transform="translate(146.142578 0)"/>
       <use xlink:href="#DejaVuSans-6b" transform="translate(201.123047 0)"/>
       <use xlink:href="#DejaVuSans-65" transform="translate(255.408203 0)"/>
       <use xlink:href="#DejaVuSans-6e" transform="translate(316.931641 0)"/>
       <use xlink:href="#DejaVuSans-47" transform="translate(380.310547 0)"/>
       <use xlink:href="#DejaVuSans-75" transform="translate(457.800781 0)"/>
       <use xlink:href="#DejaVuSans-74" transform="translate(521.179688 0)"/>
      </g>
     </g>
    </g>
    <g id="xtick_5">
     <g id="line2d_5">
      <path d="M 231.635455 307.871932 
L 231.635455 28.32 
" clip-path="url(#p127efa4f02)" style="fill: none; stroke: #cccccc; stroke-linecap: round"/>
     </g>
     <g id="text_5">
      <!-- freshwater -->
      <g style="fill: #262626" transform="translate(188.329252 364.970714) rotate(-45) scale(0.11 -0.11)">
       <defs>
        <path id="DejaVuSans-73" d="M 2834 3397 
L 2834 2853 
Q 2591 2978 2328 3040 
Q 2066 3103 1784 3103 
Q 1356 3103 1142 2972 
Q 928 2841 928 2578 
Q 928 2378 1081 2264 
Q 1234 2150 1697 2047 
L 1894 2003 
Q 2506 1872 2764 1633 
Q 3022 1394 3022 966 
Q 3022 478 2636 193 
Q 2250 -91 1575 -91 
Q 1294 -91 989 -36 
Q 684 19 347 128 
L 347 722 
Q 666 556 975 473 
Q 1284 391 1588 391 
Q 1994 391 2212 530 
Q 2431 669 2431 922 
Q 2431 1156 2273 1281 
Q 2116 1406 1581 1522 
L 1381 1569 
Q 847 1681 609 1914 
Q 372 2147 372 2553 
Q 372 3047 722 3315 
Q 1072 3584 1716 3584 
Q 2034 3584 2315 3537 
Q 2597 3491 2834 3397 
z
" transform="scale(0.015625)"/>
        <path id="DejaVuSans-77" d="M 269 3500 
L 844 3500 
L 1563 769 
L 2278 3500 
L 2956 3500 
L 3675 769 
L 4391 3500 
L 4966 3500 
L 4050 0 
L 3372 0 
L 2619 2869 
L 1863 0 
L 1184 0 
L 269 3500 
z
" transform="scale(0.015625)"/>
       </defs>
       <use xlink:href="#DejaVuSans-66"/>
       <use xlink:href="#DejaVuSans-72" transform="translate(35.205078 0)"/>
       <use xlink:href="#DejaVuSans-65" transform="translate(74.068359 0)"/>
       <use xlink:href="#DejaVuSans-73" transform="translate(135.591797 0)"/>
       <use xlink:href="#DejaVuSans-68" transform="translate(187.691406 0)"/>
       <use xlink:href="#DejaVuSans-77" transform="translate(251.070312 0)"/>
       <use xlink:href="#DejaVuSans-61" transform="translate(332.857422 0)"/>
       <use xlink:href="#DejaVuSans-74" transform="translate(394.136719 0)"/>
       <use xlink:href="#DejaVuSans-65" transform="translate(433.345703 0)"/>
       <use xlink:href="#DejaVuSans-72" transform="translate(494.869141 0)"/>
      </g>
     </g>
    </g>
    <g id="xtick_6">
     <g id="line2d_6">
      <path d="M 267.03 307.871932 
L 267.03 28.32 
" clip-path="url(#p127efa4f02)" style="fill: none; stroke: #cccccc; stroke-linecap: round"/>
     </g>
     <g id="text_6">
      <!-- freshwaterSediment -->
      <g style="fill: #262626" transform="translate(186.559922 402.13459) rotate(-45) scale(0.11 -0.11)">
       <defs>
        <path id="DejaVuSans-53" d="M 3425 4513 
L 3425 3897 
Q 3066 4069 2747 4153 
Q 2428 4238 2131 4238 
Q 1616 4238 1336 4038 
Q 1056 3838 1056 3469 
Q 1056 3159 1242 3001 
Q 1428 2844 1947 2747 
L 2328 2669 
Q 3034 2534 3370 2195 
Q 3706 1856 3706 1288 
Q 3706 609 3251 259 
Q 2797 -91 1919 -91 
Q 1588 -91 1214 -16 
Q 841 59 441 206 
L 441 856 
Q 825 641 1194 531 
Q 1563 422 1919 422 
Q 2459 422 2753 634 
Q 3047 847 3047 1241 
Q 3047 1584 2836 1778 
Q 2625 1972 2144 2069 
L 1759 2144 
Q 1053 2284 737 2584 
Q 422 2884 422 3419 
Q 422 4038 858 4394 
Q 1294 4750 2059 4750 
Q 2388 4750 2728 4690 
Q 3069 4631 3425 4513 
z
" transform="scale(0.015625)"/>
        <path id="DejaVuSans-64" d="M 2906 2969 
L 2906 4863 
L 3481 4863 
L 3481 0 
L 2906 0 
L 2906 525 
Q 2725 213 2448 61 
Q 2172 -91 1784 -91 
Q 1150 -91 751 415 
Q 353 922 353 1747 
Q 353 2572 751 3078 
Q 1150 3584 1784 3584 
Q 2172 3584 2448 3432 
Q 2725 3281 2906 2969 
z
M 947 1747 
Q 947 1113 1208 752 
Q 1469 391 1925 391 
Q 2381 391 2643 752 
Q 2906 1113 2906 1747 
Q 2906 2381 2643 2742 
Q 2381 3103 1925 3103 
Q 1469 3103 1208 2742 
Q 947 2381 947 1747 
z
" transform="scale(0.015625)"/>
        <path id="DejaVuSans-6d" d="M 3328 2828 
Q 3544 3216 3844 3400 
Q 4144 3584 4550 3584 
Q 5097 3584 5394 3201 
Q 5691 2819 5691 2113 
L 5691 0 
L 5113 0 
L 5113 2094 
Q 5113 2597 4934 2840 
Q 4756 3084 4391 3084 
Q 3944 3084 3684 2787 
Q 3425 2491 3425 1978 
L 3425 0 
L 2847 0 
L 2847 2094 
Q 2847 2600 2669 2842 
Q 2491 3084 2119 3084 
Q 1678 3084 1418 2786 
Q 1159 2488 1159 1978 
L 1159 0 
L 581 0 
L 581 3500 
L 1159 3500 
L 1159 2956 
Q 1356 3278 1631 3431 
Q 1906 3584 2284 3584 
Q 2666 3584 2933 3390 
Q 3200 3197 3328 2828 
z
" transform="scale(0.015625)"/>
       </defs>
       <use xlink:href="#DejaVuSans-66"/>
       <use xlink:href="#DejaVuSans-72" transform="translate(35.205078 0)"/>
       <use xlink:href="#DejaVuSans-65" transform="translate(74.068359 0)"/>
       <use xlink:href="#DejaVuSans-73" transform="translate(135.591797 0)"/>
       <use xlink:href="#DejaVuSans-68" transform="translate(187.691406 0)"/>
       <use xlink:href="#DejaVuSans-77" transform="translate(251.070312 0)"/>
       <use xlink:href="#DejaVuSans-61" transform="translate(332.857422 0)"/>
       <use xlink:href="#DejaVuSans-74" transform="translate(394.136719 0)"/>
       <use xlink:href="#DejaVuSans-65" transform="translate(433.345703 0)"/>
       <use xlink:href="#DejaVuSans-72" transform="translate(494.869141 0)"/>
       <use xlink:href="#DejaVuSans-53" transform="translate(535.982422 0)"/>
       <use xlink:href="#DejaVuSans-65" transform="translate(599.458984 0)"/>
       <use xlink:href="#DejaVuSans-64" transform="translate(660.982422 0)"/>
       <use xlink:href="#DejaVuSans-69" transform="translate(724.458984 0)"/>
       <use xlink:href="#DejaVuSans-6d" transform="translate(752.242188 0)"/>
       <use xlink:href="#DejaVuSans-65" transform="translate(849.654297 0)"/>
       <use xlink:href="#DejaVuSans-6e" transform="translate(911.177734 0)"/>
       <use xlink:href="#DejaVuSans-74" transform="translate(974.556641 0)"/>
      </g>
     </g>
    </g>
    <g id="xtick_7">
     <g id="line2d_7">
      <path d="M 302.424545 307.871932 
L 302.424545 28.32 
" clip-path="url(#p127efa4f02)" style="fill: none; stroke: #cccccc; stroke-linecap: round"/>
     </g>
     <g id="text_7">
      <!-- groundwater -->
      <g style="fill: #262626" transform="translate(251.129915 372.959143) rotate(-45) scale(0.11 -0.11)">
       <defs>
        <path id="DejaVuSans-67" d="M 2906 1791 
Q 2906 2416 2648 2759 
Q 2391 3103 1925 3103 
Q 1463 3103 1205 2759 
Q 947 2416 947 1791 
Q 947 1169 1205 825 
Q 1463 481 1925 481 
Q 2391 481 2648 825 
Q 2906 1169 2906 1791 
z
M 3481 434 
Q 3481 -459 3084 -895 
Q 2688 -1331 1869 -1331 
Q 1566 -1331 1297 -1286 
Q 1028 -1241 775 -1147 
L 775 -588 
Q 1028 -725 1275 -790 
Q 1522 -856 1778 -856 
Q 2344 -856 2625 -561 
Q 2906 -266 2906 331 
L 2906 616 
Q 2728 306 2450 153 
Q 2172 0 1784 0 
Q 1141 0 747 490 
Q 353 981 353 1791 
Q 353 2603 747 3093 
Q 1141 3584 1784 3584 
Q 2172 3584 2450 3431 
Q 2728 3278 2906 2969 
L 2906 3500 
L 3481 3500 
L 3481 434 
z
" transform="scale(0.015625)"/>
       </defs>
       <use xlink:href="#DejaVuSans-67"/>
       <use xlink:href="#DejaVuSans-72" transform="translate(63.476562 0)"/>
       <use xlink:href="#DejaVuSans-6f" transform="translate(102.339844 0)"/>
       <use xlink:href="#DejaVuSans-75" transform="translate(163.521484 0)"/>
       <use xlink:href="#DejaVuSans-6e" transform="translate(226.900391 0)"/>
       <use xlink:href="#DejaVuSans-64" transform="translate(290.279297 0)"/>
       <use xlink:href="#DejaVuSans-77" transform="translate(353.755859 0)"/>
       <use xlink:href="#DejaVuSans-61" transform="translate(435.542969 0)"/>
       <use xlink:href="#DejaVuSans-74" transform="translate(496.822266 0)"/>
       <use xlink:href="#DejaVuSans-65" transform="translate(536.03125 0)"/>
       <use xlink:href="#DejaVuSans-72" transform="translate(597.554688 0)"/>
      </g>
     </g>
    </g>
    <g id="xtick_8">
     <g id="line2d_8">
      <path d="M 337.819091 307.871932 
L 337.819091 28.32 
" clip-path="url(#p127efa4f02)" style="fill: none; stroke: #cccccc; stroke-linecap: round"/>
     </g>
     <g id="text_8">
      <!-- ice -->
      <g style="fill: #262626" transform="translate(324.977811 334.505792) rotate(-45) scale(0.11 -0.11)">
       <use xlink:href="#DejaVuSans-69"/>
       <use xlink:href="#DejaVuSans-63" transform="translate(27.783203 0)"/>
       <use xlink:href="#DejaVuSans-65" transform="translate(82.763672 0)"/>
      </g>
     </g>
    </g>
    <g id="xtick_9">
     <g id="line2d_9">
      <path d="M 373.213636 307.871932 
L 373.213636 28.32 
" clip-path="url(#p127efa4f02)" style="fill: none; stroke: #cccccc; stroke-linecap: round"/>
     </g>
     <g id="text_9">
      <!-- insectGut -->
      <g style="fill: #262626" transform="translate(334.336132 360.542016) rotate(-45) scale(0.11 -0.11)">
       <use xlink:href="#DejaVuSans-69"/>
       <use xlink:href="#DejaVuSans-6e" transform="translate(27.783203 0)"/>
       <use xlink:href="#DejaVuSans-73" transform="translate(91.162109 0)"/>
       <use xlink:href="#DejaVuSans-65" transform="translate(143.261719 0)"/>
       <use xlink:href="#DejaVuSans-63" transform="translate(204.785156 0)"/>
       <use xlink:href="#DejaVuSans-74" transform="translate(259.765625 0)"/>
       <use xlink:href="#DejaVuSans-47" transform="translate(298.974609 0)"/>
       <use xlink:href="#DejaVuSans-75" transform="translate(376.464844 0)"/>
       <use xlink:href="#DejaVuSans-74" transform="translate(439.84375 0)"/>
      </g>
     </g>
    </g>
    <g id="xtick_10">
     <g id="line2d_10">
      <path d="M 408.608182 307.871932 
L 408.608182 28.32 
" clip-path="url(#p127efa4f02)" style="fill: none; stroke: #cccccc; stroke-linecap: round"/>
     </g>
     <g id="text_10">
      <!-- invertebrateGut -->
      <g style="fill: #262626" transform="translate(344.734784 385.53791) rotate(-45) scale(0.11 -0.11)">
       <use xlink:href="#DejaVuSans-69"/>
       <use xlink:href="#DejaVuSans-6e" transform="translate(27.783203 0)"/>
       <use xlink:href="#DejaVuSans-76" transform="translate(91.162109 0)"/>
       <use xlink:href="#DejaVuSans-65" transform="translate(150.341797 0)"/>
       <use xlink:href="#DejaVuSans-72" transform="translate(211.865234 0)"/>
       <use xlink:href="#DejaVuSans-74" transform="translate(252.978516 0)"/>
       <use xlink:href="#DejaVuSans-65" transform="translate(292.1875 0)"/>
       <use xlink:href="#DejaVuSans-62" transform="translate(353.710938 0)"/>
       <use xlink:href="#DejaVuSans-72" transform="translate(417.1875 0)"/>
       <use xlink:href="#DejaVuSans-61" transform="translate(458.300781 0)"/>
       <use xlink:href="#DejaVuSans-74" transform="translate(519.580078 0)"/>
       <use xlink:href="#DejaVuSans-65" transform="translate(558.789062 0)"/>
       <use xlink:href="#DejaVuSans-47" transform="translate(620.3125 0)"/>
       <use xlink:href="#DejaVuSans-75" transform="translate(697.802734 0)"/>
       <use xlink:href="#DejaVuSans-74" transform="translate(761.181641 0)"/>
      </g>
     </g>
    </g>
    <g id="xtick_11">
     <g id="line2d_11">
      <path d="M 444.002727 307.871932 
L 444.002727 28.32 
" clip-path="url(#p127efa4f02)" style="fill: none; stroke: #cccccc; stroke-linecap: round"/>
     </g>
     <g id="text_11">
      <!-- lakewater -->
      <g style="fill: #262626" transform="translate(404.289069 361.37817) rotate(-45) scale(0.11 -0.11)">
       <defs>
        <path id="DejaVuSans-6c" d="M 603 4863 
L 1178 4863 
L 1178 0 
L 603 0 
L 603 4863 
z
" transform="scale(0.015625)"/>
       </defs>
       <use xlink:href="#DejaVuSans-6c"/>
       <use xlink:href="#DejaVuSans-61" transform="translate(27.783203 0)"/>
       <use xlink:href="#DejaVuSans-6b" transform="translate(89.0625 0)"/>
       <use xlink:href="#DejaVuSans-65" transform="translate(143.347656 0)"/>
       <use xlink:href="#DejaVuSans-77" transform="translate(204.871094 0)"/>
       <use xlink:href="#DejaVuSans-61" transform="translate(286.658203 0)"/>
       <use xlink:href="#DejaVuSans-74" transform="translate(347.9375 0)"/>
       <use xlink:href="#DejaVuSans-65" transform="translate(387.146484 0)"/>
       <use xlink:href="#DejaVuSans-72" transform="translate(448.669922 0)"/>
      </g>
     </g>
    </g>
    <g id="xtick_12">
     <g id="line2d_12">
      <path d="M 479.397273 307.871932 
L 479.397273 28.32 
" clip-path="url(#p127efa4f02)" style="fill: none; stroke: #cccccc; stroke-linecap: round"/>
     </g>
     <g id="text_12">
      <!-- mouseGut -->
      <g style="fill: #262626" transform="translate(437.671012 363.390773) rotate(-45) scale(0.11 -0.11)">
       <use xlink:href="#DejaVuSans-6d"/>
       <use xlink:href="#DejaVuSans-6f" transform="translate(97.412109 0)"/>
       <use xlink:href="#DejaVuSans-75" transform="translate(158.59375 0)"/>
       <use xlink:href="#DejaVuSans-73" transform="translate(221.972656 0)"/>
       <use xlink:href="#DejaVuSans-65" transform="translate(274.072266 0)"/>
       <use xlink:href="#DejaVuSans-47" transform="translate(335.595703 0)"/>
       <use xlink:href="#DejaVuSans-75" transform="translate(413.085938 0)"/>
       <use xlink:href="#DejaVuSans-74" transform="translate(476.464844 0)"/>
      </g>
     </g>
    </g>
    <g id="xtick_13">
     <g id="line2d_13">
      <path d="M 514.791818 307.871932 
L 514.791818 28.32 
" clip-path="url(#p127efa4f02)" style="fill: none; stroke: #cccccc; stroke-linecap: round"/>
     </g>
     <g id="text_13">
      <!-- peat -->
      <g style="fill: #262626" transform="translate(495.634417 340.821913) rotate(-45) scale(0.11 -0.11)">
       <defs>
        <path id="DejaVuSans-70" d="M 1159 525 
L 1159 -1331 
L 581 -1331 
L 581 3500 
L 1159 3500 
L 1159 2969 
Q 1341 3281 1617 3432 
Q 1894 3584 2278 3584 
Q 2916 3584 3314 3078 
Q 3713 2572 3713 1747 
Q 3713 922 3314 415 
Q 2916 -91 2278 -91 
Q 1894 -91 1617 61 
Q 1341 213 1159 525 
z
M 3116 1747 
Q 3116 2381 2855 2742 
Q 2594 3103 2138 3103 
Q 1681 3103 1420 2742 
Q 1159 2381 1159 1747 
Q 1159 1113 1420 752 
Q 1681 391 2138 391 
Q 2594 391 2855 752 
Q 3116 1113 3116 1747 
z
" transform="scale(0.015625)"/>
       </defs>
       <use xlink:href="#DejaVuSans-70"/>
       <use xlink:href="#DejaVuSans-65" transform="translate(63.476562 0)"/>
       <use xlink:href="#DejaVuSans-61" transform="translate(125 0)"/>
       <use xlink:href="#DejaVuSans-74" transform="translate(186.279297 0)"/>
      </g>
     </g>
    </g>
    <g id="xtick_14">
     <g id="line2d_14">
      <path d="M 550.186364 307.871932 
L 550.186364 28.32 
" clip-path="url(#p127efa4f02)" style="fill: none; stroke: #cccccc; stroke-linecap: round"/>
     </g>
     <g id="text_14">
      <!-- pigGut -->
      <g style="fill: #262626" transform="translate(522.526446 349.32443) rotate(-45) scale(0.11 -0.11)">
       <use xlink:href="#DejaVuSans-70"/>
       <use xlink:href="#DejaVuSans-69" transform="translate(63.476562 0)"/>
       <use xlink:href="#DejaVuSans-67" transform="translate(91.259766 0)"/>
       <use xlink:href="#DejaVuSans-47" transform="translate(154.736328 0)"/>
       <use xlink:href="#DejaVuSans-75" transform="translate(232.226562 0)"/>
       <use xlink:href="#DejaVuSans-74" transform="translate(295.605469 0)"/>
      </g>
     </g>
    </g>
    <g id="xtick_15">
     <g id="line2d_15">
      <path d="M 585.580909 307.871932 
L 585.580909 28.32 
" clip-path="url(#p127efa4f02)" style="fill: none; stroke: #cccccc; stroke-linecap: round"/>
     </g>
     <g id="text_15">
      <!-- pond -->
      <g style="fill: #262626" transform="translate(564.398752 342.846669) rotate(-45) scale(0.11 -0.11)">
       <use xlink:href="#DejaVuSans-70"/>
       <use xlink:href="#DejaVuSans-6f" transform="translate(63.476562 0)"/>
       <use xlink:href="#DejaVuSans-6e" transform="translate(124.658203 0)"/>
       <use xlink:href="#DejaVuSans-64" transform="translate(188.037109 0)"/>
      </g>
     </g>
    </g>
    <g id="xtick_16">
     <g id="line2d_16">
      <path d="M 620.975455 307.871932 
L 620.975455 28.32 
" clip-path="url(#p127efa4f02)" style="fill: none; stroke: #cccccc; stroke-linecap: round"/>
     </g>
     <g id="text_16">
      <!-- ratGut -->
      <g style="fill: #262626" transform="translate(594.338853 348.301114) rotate(-45) scale(0.11 -0.11)">
       <use xlink:href="#DejaVuSans-72"/>
       <use xlink:href="#DejaVuSans-61" transform="translate(41.113281 0)"/>
       <use xlink:href="#DejaVuSans-74" transform="translate(102.392578 0)"/>
       <use xlink:href="#DejaVuSans-47" transform="translate(141.601562 0)"/>
       <use xlink:href="#DejaVuSans-75" transform="translate(219.091797 0)"/>
       <use xlink:href="#DejaVuSans-74" transform="translate(282.470703 0)"/>
      </g>
     </g>
    </g>
    <g id="xtick_17">
     <g id="line2d_17">
      <path d="M 656.37 307.871932 
L 656.37 28.32 
" clip-path="url(#p127efa4f02)" style="fill: none; stroke: #cccccc; stroke-linecap: round"/>
     </g>
     <g id="text_17">
      <!-- riverine -->
      <g style="fill: #262626" transform="translate(624.930375 353.104137) rotate(-45) scale(0.11 -0.11)">
       <use xlink:href="#DejaVuSans-72"/>
       <use xlink:href="#DejaVuSans-69" transform="translate(41.113281 0)"/>
       <use xlink:href="#DejaVuSans-76" transform="translate(68.896484 0)"/>
       <use xlink:href="#DejaVuSans-65" transform="translate(128.076172 0)"/>
       <use xlink:href="#DejaVuSans-72" transform="translate(189.599609 0)"/>
       <use xlink:href="#DejaVuSans-69" transform="translate(230.712891 0)"/>
       <use xlink:href="#DejaVuSans-6e" transform="translate(258.496094 0)"/>
       <use xlink:href="#DejaVuSans-65" transform="translate(321.875 0)"/>
      </g>
     </g>
    </g>
    <g id="xtick_18">
     <g id="line2d_18">
      <path d="M 691.764545 307.871932 
L 691.764545 28.32 
" clip-path="url(#p127efa4f02)" style="fill: none; stroke: #cccccc; stroke-linecap: round"/>
     </g>
     <g id="text_18">
      <!-- sheepGut -->
      <g style="fill: #262626" transform="translate(652.65005 360.779008) rotate(-45) scale(0.11 -0.11)">
       <use xlink:href="#DejaVuSans-73"/>
       <use xlink:href="#DejaVuSans-68" transform="translate(52.099609 0)"/>
       <use xlink:href="#DejaVuSans-65" transform="translate(115.478516 0)"/>
       <use xlink:href="#DejaVuSans-65" transform="translate(177.001953 0)"/>
       <use xlink:href="#DejaVuSans-70" transform="translate(238.525391 0)"/>
       <use xlink:href="#DejaVuSans-47" transform="translate(302.001953 0)"/>
       <use xlink:href="#DejaVuSans-75" transform="translate(379.492188 0)"/>
       <use xlink:href="#DejaVuSans-74" transform="translate(442.871094 0)"/>
      </g>
     </g>
    </g>
    <g id="xtick_19">
     <g id="line2d_19">
      <path d="M 727.159091 307.871932 
L 727.159091 28.32 
" clip-path="url(#p127efa4f02)" style="fill: none; stroke: #cccccc; stroke-linecap: round"/>
     </g>
     <g id="text_19">
      <!-- soil -->
      <g style="fill: #262626" transform="translate(712.408512 336.415091) rotate(-45) scale(0.11 -0.11)">
       <use xlink:href="#DejaVuSans-73"/>
       <use xlink:href="#DejaVuSans-6f" transform="translate(52.099609 0)"/>
       <use xlink:href="#DejaVuSans-69" transform="translate(113.28125 0)"/>
       <use xlink:href="#DejaVuSans-6c" transform="translate(141.064453 0)"/>
      </g>
     </g>
    </g>
    <g id="xtick_20">
     <g id="line2d_20">
      <path d="M 762.553636 307.871932 
L 762.553636 28.32 
" clip-path="url(#p127efa4f02)" style="fill: none; stroke: #cccccc; stroke-linecap: round"/>
     </g>
     <g id="text_20">
      <!-- urban -->
      <g style="fill: #262626" transform="translate(738.175136 346.043013) rotate(-45) scale(0.11 -0.11)">
       <use xlink:href="#DejaVuSans-75"/>
       <use xlink:href="#DejaVuSans-72" transform="translate(63.378906 0)"/>
       <use xlink:href="#DejaVuSans-62" transform="translate(104.492188 0)"/>
       <use xlink:href="#DejaVuSans-61" transform="translate(167.96875 0)"/>
       <use xlink:href="#DejaVuSans-6e" transform="translate(229.248047 0)"/>
      </g>
     </g>
    </g>
    <g id="xtick_21">
     <g id="line2d_21">
      <path d="M 797.948182 307.871932 
L 797.948182 28.32 
" clip-path="url(#p127efa4f02)" style="fill: none; stroke: #cccccc; stroke-linecap: round"/>
     </g>
     <g id="text_21">
      <!-- wastewater -->
      <g style="fill: #262626" transform="translate(751.15517 368.457524) rotate(-45) scale(0.11 -0.11)">
       <use xlink:href="#DejaVuSans-77"/>
       <use xlink:href="#DejaVuSans-61" transform="translate(81.787109 0)"/>
       <use xlink:href="#DejaVuSans-73" transform="translate(143.066406 0)"/>
       <use xlink:href="#DejaVuSans-74" transform="translate(195.166016 0)"/>
       <use xlink:href="#DejaVuSans-65" transform="translate(234.375 0)"/>
       <use xlink:href="#DejaVuSans-77" transform="translate(295.898438 0)"/>
       <use xlink:href="#DejaVuSans-61" transform="translate(377.685547 0)"/>
       <use xlink:href="#DejaVuSans-74" transform="translate(438.964844 0)"/>
       <use xlink:href="#DejaVuSans-65" transform="translate(478.173828 0)"/>
       <use xlink:href="#DejaVuSans-72" transform="translate(539.697266 0)"/>
      </g>
     </g>
    </g>
    <g id="xtick_22">
     <g id="line2d_22">
      <path d="M 833.342727 307.871932 
L 833.342727 28.32 
" clip-path="url(#p127efa4f02)" style="fill: none; stroke: #cccccc; stroke-linecap: round"/>
     </g>
     <g id="text_22">
      <!-- wetland -->
      <g style="fill: #262626" transform="translate(800.733946 354.273294) rotate(-45) scale(0.11 -0.11)">
       <use xlink:href="#DejaVuSans-77"/>
       <use xlink:href="#DejaVuSans-65" transform="translate(81.787109 0)"/>
       <use xlink:href="#DejaVuSans-74" transform="translate(143.310547 0)"/>
       <use xlink:href="#DejaVuSans-6c" transform="translate(182.519531 0)"/>
       <use xlink:href="#DejaVuSans-61" transform="translate(210.302734 0)"/>
       <use xlink:href="#DejaVuSans-6e" transform="translate(271.582031 0)"/>
       <use xlink:href="#DejaVuSans-64" transform="translate(334.960938 0)"/>
      </g>
     </g>
    </g>
    <g id="text_23">
     <!-- ecosystem -->
     <g style="fill: #262626" transform="translate(429.346875 416.870332) scale(0.12 -0.12)">
      <defs>
       <path id="DejaVuSans-79" d="M 2059 -325 
Q 1816 -950 1584 -1140 
Q 1353 -1331 966 -1331 
L 506 -1331 
L 506 -850 
L 844 -850 
Q 1081 -850 1212 -737 
Q 1344 -625 1503 -206 
L 1606 56 
L 191 3500 
L 800 3500 
L 1894 763 
L 2988 3500 
L 3597 3500 
L 2059 -325 
z
" transform="scale(0.015625)"/>
      </defs>
      <use xlink:href="#DejaVuSans-65"/>
      <use xlink:href="#DejaVuSans-63" transform="translate(61.523438 0)"/>
      <use xlink:href="#DejaVuSans-6f" transform="translate(116.503906 0)"/>
      <use xlink:href="#DejaVuSans-73" transform="translate(177.685547 0)"/>
      <use xlink:href="#DejaVuSans-79" transform="translate(229.785156 0)"/>
      <use xlink:href="#DejaVuSans-73" transform="translate(288.964844 0)"/>
      <use xlink:href="#DejaVuSans-74" transform="translate(341.064453 0)"/>
      <use xlink:href="#DejaVuSans-65" transform="translate(380.273438 0)"/>
      <use xlink:href="#DejaVuSans-6d" transform="translate(441.796875 0)"/>
     </g>
    </g>
   </g>
   <g id="matplotlib.axis_2">
    <g id="ytick_1">
     <g id="line2d_23">
      <path d="M 72.36 307.871932 
L 851.04 307.871932 
" clip-path="url(#p127efa4f02)" style="fill: none; stroke: #cccccc; stroke-linecap: round"/>
     </g>
     <g id="text_24">
      <!-- 0 -->
      <g style="fill: #262626" transform="translate(55.86125 312.051073) scale(0.11 -0.11)">
       <defs>
        <path id="DejaVuSans-30" d="M 2034 4250 
Q 1547 4250 1301 3770 
Q 1056 3291 1056 2328 
Q 1056 1369 1301 889 
Q 1547 409 2034 409 
Q 2525 409 2770 889 
Q 3016 1369 3016 2328 
Q 3016 3291 2770 3770 
Q 2525 4250 2034 4250 
z
M 2034 4750 
Q 2819 4750 3233 4129 
Q 3647 3509 3647 2328 
Q 3647 1150 3233 529 
Q 2819 -91 2034 -91 
Q 1250 -91 836 529 
Q 422 1150 422 2328 
Q 422 3509 836 4129 
Q 1250 4750 2034 4750 
z
" transform="scale(0.015625)"/>
       </defs>
       <use xlink:href="#DejaVuSans-30"/>
      </g>
     </g>
    </g>
    <g id="ytick_2">
     <g id="line2d_24">
      <path d="M 72.36 257.416167 
L 851.04 257.416167 
" clip-path="url(#p127efa4f02)" style="fill: none; stroke: #cccccc; stroke-linecap: round"/>
     </g>
     <g id="text_25">
      <!-- 10000 -->
      <g style="fill: #262626" transform="translate(27.86625 261.595308) scale(0.11 -0.11)">
       <defs>
        <path id="DejaVuSans-31" d="M 794 531 
L 1825 531 
L 1825 4091 
L 703 3866 
L 703 4441 
L 1819 4666 
L 2450 4666 
L 2450 531 
L 3481 531 
L 3481 0 
L 794 0 
L 794 531 
z
" transform="scale(0.015625)"/>
       </defs>
       <use xlink:href="#DejaVuSans-31"/>
       <use xlink:href="#DejaVuSans-30" transform="translate(63.623047 0)"/>
       <use xlink:href="#DejaVuSans-30" transform="translate(127.246094 0)"/>
       <use xlink:href="#DejaVuSans-30" transform="translate(190.869141 0)"/>
       <use xlink:href="#DejaVuSans-30" transform="translate(254.492188 0)"/>
      </g>
     </g>
    </g>
    <g id="ytick_3">
     <g id="line2d_25">
      <path d="M 72.36 206.960402 
L 851.04 206.960402 
" clip-path="url(#p127efa4f02)" style="fill: none; stroke: #cccccc; stroke-linecap: round"/>
     </g>
     <g id="text_26">
      <!-- 20000 -->
      <g style="fill: #262626" transform="translate(27.86625 211.139543) scale(0.11 -0.11)">
       <defs>
        <path id="DejaVuSans-32" d="M 1228 531 
L 3431 531 
L 3431 0 
L 469 0 
L 469 531 
Q 828 903 1448 1529 
Q 2069 2156 2228 2338 
Q 2531 2678 2651 2914 
Q 2772 3150 2772 3378 
Q 2772 3750 2511 3984 
Q 2250 4219 1831 4219 
Q 1534 4219 1204 4116 
Q 875 4013 500 3803 
L 500 4441 
Q 881 4594 1212 4672 
Q 1544 4750 1819 4750 
Q 2544 4750 2975 4387 
Q 3406 4025 3406 3419 
Q 3406 3131 3298 2873 
Q 3191 2616 2906 2266 
Q 2828 2175 2409 1742 
Q 1991 1309 1228 531 
z
" transform="scale(0.015625)"/>
       </defs>
       <use xlink:href="#DejaVuSans-32"/>
       <use xlink:href="#DejaVuSans-30" transform="translate(63.623047 0)"/>
       <use xlink:href="#DejaVuSans-30" transform="translate(127.246094 0)"/>
       <use xlink:href="#DejaVuSans-30" transform="translate(190.869141 0)"/>
       <use xlink:href="#DejaVuSans-30" transform="translate(254.492188 0)"/>
      </g>
     </g>
    </g>
    <g id="ytick_4">
     <g id="line2d_26">
      <path d="M 72.36 156.504637 
L 851.04 156.504637 
" clip-path="url(#p127efa4f02)" style="fill: none; stroke: #cccccc; stroke-linecap: round"/>
     </g>
     <g id="text_27">
      <!-- 30000 -->
      <g style="fill: #262626" transform="translate(27.86625 160.683778) scale(0.11 -0.11)">
       <defs>
        <path id="DejaVuSans-33" d="M 2597 2516 
Q 3050 2419 3304 2112 
Q 3559 1806 3559 1356 
Q 3559 666 3084 287 
Q 2609 -91 1734 -91 
Q 1441 -91 1130 -33 
Q 819 25 488 141 
L 488 750 
Q 750 597 1062 519 
Q 1375 441 1716 441 
Q 2309 441 2620 675 
Q 2931 909 2931 1356 
Q 2931 1769 2642 2001 
Q 2353 2234 1838 2234 
L 1294 2234 
L 1294 2753 
L 1863 2753 
Q 2328 2753 2575 2939 
Q 2822 3125 2822 3475 
Q 2822 3834 2567 4026 
Q 2313 4219 1838 4219 
Q 1578 4219 1281 4162 
Q 984 4106 628 3988 
L 628 4550 
Q 988 4650 1302 4700 
Q 1616 4750 1894 4750 
Q 2613 4750 3031 4423 
Q 3450 4097 3450 3541 
Q 3450 3153 3228 2886 
Q 3006 2619 2597 2516 
z
" transform="scale(0.015625)"/>
       </defs>
       <use xlink:href="#DejaVuSans-33"/>
       <use xlink:href="#DejaVuSans-30" transform="translate(63.623047 0)"/>
       <use xlink:href="#DejaVuSans-30" transform="translate(127.246094 0)"/>
       <use xlink:href="#DejaVuSans-30" transform="translate(190.869141 0)"/>
       <use xlink:href="#DejaVuSans-30" transform="translate(254.492188 0)"/>
      </g>
     </g>
    </g>
    <g id="ytick_5">
     <g id="line2d_27">
      <path d="M 72.36 106.048872 
L 851.04 106.048872 
" clip-path="url(#p127efa4f02)" style="fill: none; stroke: #cccccc; stroke-linecap: round"/>
     </g>
     <g id="text_28">
      <!-- 40000 -->
      <g style="fill: #262626" transform="translate(27.86625 110.228013) scale(0.11 -0.11)">
       <defs>
        <path id="DejaVuSans-34" d="M 2419 4116 
L 825 1625 
L 2419 1625 
L 2419 4116 
z
M 2253 4666 
L 3047 4666 
L 3047 1625 
L 3713 1625 
L 3713 1100 
L 3047 1100 
L 3047 0 
L 2419 0 
L 2419 1100 
L 313 1100 
L 313 1709 
L 2253 4666 
z
" transform="scale(0.015625)"/>
       </defs>
       <use xlink:href="#DejaVuSans-34"/>
       <use xlink:href="#DejaVuSans-30" transform="translate(63.623047 0)"/>
       <use xlink:href="#DejaVuSans-30" transform="translate(127.246094 0)"/>
       <use xlink:href="#DejaVuSans-30" transform="translate(190.869141 0)"/>
       <use xlink:href="#DejaVuSans-30" transform="translate(254.492188 0)"/>
      </g>
     </g>
    </g>
    <g id="ytick_6">
     <g id="line2d_28">
      <path d="M 72.36 55.593107 
L 851.04 55.593107 
" clip-path="url(#p127efa4f02)" style="fill: none; stroke: #cccccc; stroke-linecap: round"/>
     </g>
     <g id="text_29">
      <!-- 50000 -->
      <g style="fill: #262626" transform="translate(27.86625 59.772248) scale(0.11 -0.11)">
       <defs>
        <path id="DejaVuSans-35" d="M 691 4666 
L 3169 4666 
L 3169 4134 
L 1269 4134 
L 1269 2991 
Q 1406 3038 1543 3061 
Q 1681 3084 1819 3084 
Q 2600 3084 3056 2656 
Q 3513 2228 3513 1497 
Q 3513 744 3044 326 
Q 2575 -91 1722 -91 
Q 1428 -91 1123 -41 
Q 819 9 494 109 
L 494 744 
Q 775 591 1075 516 
Q 1375 441 1709 441 
Q 2250 441 2565 725 
Q 2881 1009 2881 1497 
Q 2881 1984 2565 2268 
Q 2250 2553 1709 2553 
Q 1456 2553 1204 2497 
Q 953 2441 691 2322 
L 691 4666 
z
" transform="scale(0.015625)"/>
       </defs>
       <use xlink:href="#DejaVuSans-35"/>
       <use xlink:href="#DejaVuSans-30" transform="translate(63.623047 0)"/>
       <use xlink:href="#DejaVuSans-30" transform="translate(127.246094 0)"/>
       <use xlink:href="#DejaVuSans-30" transform="translate(190.869141 0)"/>
       <use xlink:href="#DejaVuSans-30" transform="translate(254.492188 0)"/>
      </g>
     </g>
    </g>
    <g id="text_30">
     <!-- Nombre de contigs -->
     <g style="fill: #262626" transform="translate(21.370625 224.974091) rotate(-90) scale(0.12 -0.12)">
      <defs>
       <path id="DejaVuSans-4e" d="M 628 4666 
L 1478 4666 
L 3547 763 
L 3547 4666 
L 4159 4666 
L 4159 0 
L 3309 0 
L 1241 3903 
L 1241 0 
L 628 0 
L 628 4666 
z
" transform="scale(0.015625)"/>
       <path id="DejaVuSans-20" transform="scale(0.015625)"/>
      </defs>
      <use xlink:href="#DejaVuSans-4e"/>
      <use xlink:href="#DejaVuSans-6f" transform="translate(74.804688 0)"/>
      <use xlink:href="#DejaVuSans-6d" transform="translate(135.986328 0)"/>
      <use xlink:href="#DejaVuSans-62" transform="translate(233.398438 0)"/>
      <use xlink:href="#DejaVuSans-72" transform="translate(296.875 0)"/>
      <use xlink:href="#DejaVuSans-65" transform="translate(335.738281 0)"/>
      <use xlink:href="#DejaVuSans-20" transform="translate(397.261719 0)"/>
      <use xlink:href="#DejaVuSans-64" transform="translate(429.048828 0)"/>
      <use xlink:href="#DejaVuSans-65" transform="translate(492.525391 0)"/>
      <use xlink:href="#DejaVuSans-20" transform="translate(554.048828 0)"/>
      <use xlink:href="#DejaVuSans-63" transform="translate(585.835938 0)"/>
      <use xlink:href="#DejaVuSans-6f" transform="translate(640.816406 0)"/>
      <use xlink:href="#DejaVuSans-6e" transform="translate(701.998047 0)"/>
      <use xlink:href="#DejaVuSans-74" transform="translate(765.376953 0)"/>
      <use xlink:href="#DejaVuSans-69" transform="translate(804.585938 0)"/>
      <use xlink:href="#DejaVuSans-67" transform="translate(832.369141 0)"/>
      <use xlink:href="#DejaVuSans-73" transform="translate(895.845703 0)"/>
     </g>
    </g>
   </g>
   <g id="patch_3">
    <path d="M 81.208636 307.871932 
L 98.905909 307.871932 
L 98.905909 307.801294 
L 81.208636 307.801294 
z
" clip-path="url(#p127efa4f02)" style="fill: #1e90ff; stroke: #ffffff; stroke-linejoin: miter"/>
   </g>
   <g id="patch_4">
    <path d="M 116.603182 307.871932 
L 134.300455 307.871932 
L 134.300455 307.871932 
L 116.603182 307.871932 
z
" clip-path="url(#p127efa4f02)" style="fill: #1e90ff; stroke: #ffffff; stroke-linejoin: miter"/>
   </g>
   <g id="patch_5">
    <path d="M 151.997727 307.871932 
L 169.695 307.871932 
L 169.695 307.306827 
L 151.997727 307.306827 
z
" clip-path="url(#p127efa4f02)" style="fill: #1e90ff; stroke: #ffffff; stroke-linejoin: miter"/>
   </g>
   <g id="patch_6">
    <path d="M 187.392273 307.871932 
L 205.089545 307.871932 
L 205.089545 307.821476 
L 187.392273 307.821476 
z
" clip-path="url(#p127efa4f02)" style="fill: #1e90ff; stroke: #ffffff; stroke-linejoin: miter"/>
   </g>
   <g id="patch_7">
    <path d="M 222.786818 307.871932 
L 240.484091 307.871932 
L 240.484091 307.145369 
L 222.786818 307.145369 
z
" clip-path="url(#p127efa4f02)" style="fill: #1e90ff; stroke: #ffffff; stroke-linejoin: miter"/>
   </g>
   <g id="patch_8">
    <path d="M 258.181364 307.871932 
L 275.878636 307.871932 
L 275.878636 307.781112 
L 258.181364 307.781112 
z
" clip-path="url(#p127efa4f02)" style="fill: #1e90ff; stroke: #ffffff; stroke-linejoin: miter"/>
   </g>
   <g id="patch_9">
    <path d="M 293.575909 307.871932 
L 311.273182 307.871932 
L 311.273182 307.801294 
L 293.575909 307.801294 
z
" clip-path="url(#p127efa4f02)" style="fill: #1e90ff; stroke: #ffffff; stroke-linejoin: miter"/>
   </g>
   <g id="patch_10">
    <path d="M 328.970455 307.871932 
L 346.667727 307.871932 
L 346.667727 307.871932 
L 328.970455 307.871932 
z
" clip-path="url(#p127efa4f02)" style="fill: #1e90ff; stroke: #ffffff; stroke-linejoin: miter"/>
   </g>
   <g id="patch_11">
    <path d="M 364.365 307.871932 
L 382.062273 307.871932 
L 382.062273 307.831567 
L 364.365 307.831567 
z
" clip-path="url(#p127efa4f02)" style="fill: #1e90ff; stroke: #ffffff; stroke-linejoin: miter"/>
   </g>
   <g id="patch_12">
    <path d="M 399.759545 307.871932 
L 417.456818 307.871932 
L 417.456818 307.871932 
L 399.759545 307.871932 
z
" clip-path="url(#p127efa4f02)" style="fill: #1e90ff; stroke: #ffffff; stroke-linejoin: miter"/>
   </g>
   <g id="patch_13">
    <path d="M 435.154091 307.871932 
L 452.851364 307.871932 
L 452.851364 307.41783 
L 435.154091 307.41783 
z
" clip-path="url(#p127efa4f02)" style="fill: #1e90ff; stroke: #ffffff; stroke-linejoin: miter"/>
   </g>
   <g id="patch_14">
    <path d="M 470.548636 307.871932 
L 488.245909 307.871932 
L 488.245909 307.806339 
L 470.548636 307.806339 
z
" clip-path="url(#p127efa4f02)" style="fill: #1e90ff; stroke: #ffffff; stroke-linejoin: miter"/>
   </g>
   <g id="patch_15">
    <path d="M 505.943182 307.871932 
L 523.640455 307.871932 
L 523.640455 307.871932 
L 505.943182 307.871932 
z
" clip-path="url(#p127efa4f02)" style="fill: #1e90ff; stroke: #ffffff; stroke-linejoin: miter"/>
   </g>
   <g id="patch_16">
    <path d="M 541.337727 307.871932 
L 559.035 307.871932 
L 559.035 307.841658 
L 541.337727 307.841658 
z
" clip-path="url(#p127efa4f02)" style="fill: #1e90ff; stroke: #ffffff; stroke-linejoin: miter"/>
   </g>
   <g id="patch_17">
    <path d="M 576.732273 307.871932 
L 594.429545 307.871932 
L 594.429545 307.831567 
L 576.732273 307.831567 
z
" clip-path="url(#p127efa4f02)" style="fill: #1e90ff; stroke: #ffffff; stroke-linejoin: miter"/>
   </g>
   <g id="patch_18">
    <path d="M 612.126818 307.871932 
L 629.824091 307.871932 
L 629.824091 307.72561 
L 612.126818 307.72561 
z
" clip-path="url(#p127efa4f02)" style="fill: #1e90ff; stroke: #ffffff; stroke-linejoin: miter"/>
   </g>
   <g id="patch_19">
    <path d="M 647.521364 307.871932 
L 665.218636 307.871932 
L 665.218636 307.518742 
L 647.521364 307.518742 
z
" clip-path="url(#p127efa4f02)" style="fill: #1e90ff; stroke: #ffffff; stroke-linejoin: miter"/>
   </g>
   <g id="patch_20">
    <path d="M 682.915909 307.871932 
L 700.613182 307.871932 
L 700.613182 307.362329 
L 682.915909 307.362329 
z
" clip-path="url(#p127efa4f02)" style="fill: #1e90ff; stroke: #ffffff; stroke-linejoin: miter"/>
   </g>
   <g id="patch_21">
    <path d="M 718.310455 307.871932 
L 736.007727 307.871932 
L 736.007727 307.856795 
L 718.310455 307.856795 
z
" clip-path="url(#p127efa4f02)" style="fill: #1e90ff; stroke: #ffffff; stroke-linejoin: miter"/>
   </g>
   <g id="patch_22">
    <path d="M 753.705 307.871932 
L 771.402273 307.871932 
L 771.402273 307.831567 
L 753.705 307.831567 
z
" clip-path="url(#p127efa4f02)" style="fill: #1e90ff; stroke: #ffffff; stroke-linejoin: miter"/>
   </g>
   <g id="patch_23">
    <path d="M 789.099545 307.871932 
L 806.796818 307.871932 
L 806.796818 307.781112 
L 789.099545 307.781112 
z
" clip-path="url(#p127efa4f02)" style="fill: #1e90ff; stroke: #ffffff; stroke-linejoin: miter"/>
   </g>
   <g id="patch_24">
    <path d="M 824.494091 307.871932 
L 842.191364 307.871932 
L 842.191364 307.836613 
L 824.494091 307.836613 
z
" clip-path="url(#p127efa4f02)" style="fill: #1e90ff; stroke: #ffffff; stroke-linejoin: miter"/>
   </g>
   <g id="patch_25">
    <path d="M 81.208636 307.801294 
L 98.905909 307.801294 
L 98.905909 306.9385 
L 81.208636 306.9385 
z
" clip-path="url(#p127efa4f02)" style="fill: #ffa500; stroke: #ffffff; stroke-linejoin: miter"/>
   </g>
   <g id="patch_26">
    <path d="M 116.603182 307.871932 
L 134.300455 307.871932 
L 134.300455 307.841658 
L 116.603182 307.841658 
z
" clip-path="url(#p127efa4f02)" style="fill: #ffa500; stroke: #ffffff; stroke-linejoin: miter"/>
   </g>
   <g id="patch_27">
    <path d="M 151.997727 307.306827 
L 169.695 307.306827 
L 169.695 242.647765 
L 151.997727 242.647765 
z
" clip-path="url(#p127efa4f02)" style="fill: #ffa500; stroke: #ffffff; stroke-linejoin: miter"/>
   </g>
   <g id="patch_28">
    <path d="M 187.392273 307.821476 
L 205.089545 307.821476 
L 205.089545 291.948092 
L 187.392273 291.948092 
z
" clip-path="url(#p127efa4f02)" style="fill: #ffa500; stroke: #ffffff; stroke-linejoin: miter"/>
   </g>
   <g id="patch_29">
    <path d="M 222.786818 307.145369 
L 240.484091 307.145369 
L 240.484091 197.631131 
L 222.786818 197.631131 
z
" clip-path="url(#p127efa4f02)" style="fill: #ffa500; stroke: #ffffff; stroke-linejoin: miter"/>
   </g>
   <g id="patch_30">
    <path d="M 258.181364 307.781112 
L 275.878636 307.781112 
L 275.878636 290.949068 
L 258.181364 290.949068 
z
" clip-path="url(#p127efa4f02)" style="fill: #ffa500; stroke: #ffffff; stroke-linejoin: miter"/>
   </g>
   <g id="patch_31">
    <path d="M 293.575909 307.801294 
L 311.273182 307.801294 
L 311.273182 254.091132 
L 293.575909 254.091132 
z
" clip-path="url(#p127efa4f02)" style="fill: #ffa500; stroke: #ffffff; stroke-linejoin: miter"/>
   </g>
   <g id="patch_32">
    <path d="M 328.970455 307.871932 
L 346.667727 307.871932 
L 346.667727 307.528833 
L 328.970455 307.528833 
z
" clip-path="url(#p127efa4f02)" style="fill: #ffa500; stroke: #ffffff; stroke-linejoin: miter"/>
   </g>
   <g id="patch_33">
    <path d="M 364.365 307.831567 
L 382.062273 307.831567 
L 382.062273 300.702168 
L 364.365 300.702168 
z
" clip-path="url(#p127efa4f02)" style="fill: #ffa500; stroke: #ffffff; stroke-linejoin: miter"/>
   </g>
   <g id="patch_34">
    <path d="M 399.759545 307.871932 
L 417.456818 307.871932 
L 417.456818 307.710473 
L 399.759545 307.710473 
z
" clip-path="url(#p127efa4f02)" style="fill: #ffa500; stroke: #ffffff; stroke-linejoin: miter"/>
   </g>
   <g id="patch_35">
    <path d="M 435.154091 307.41783 
L 452.851364 307.41783 
L 452.851364 136.690658 
L 435.154091 136.690658 
z
" clip-path="url(#p127efa4f02)" style="fill: #ffa500; stroke: #ffffff; stroke-linejoin: miter"/>
   </g>
   <g id="patch_36">
    <path d="M 470.548636 307.806339 
L 488.245909 307.806339 
L 488.245909 286.256682 
L 470.548636 286.256682 
z
" clip-path="url(#p127efa4f02)" style="fill: #ffa500; stroke: #ffffff; stroke-linejoin: miter"/>
   </g>
   <g id="patch_37">
    <path d="M 505.943182 307.871932 
L 523.640455 307.871932 
L 523.640455 305.308779 
L 505.943182 305.308779 
z
" clip-path="url(#p127efa4f02)" style="fill: #ffa500; stroke: #ffffff; stroke-linejoin: miter"/>
   </g>
   <g id="patch_38">
    <path d="M 541.337727 307.841658 
L 559.035 307.841658 
L 559.035 238.964494 
L 541.337727 238.964494 
z
" clip-path="url(#p127efa4f02)" style="fill: #ffa500; stroke: #ffffff; stroke-linejoin: miter"/>
   </g>
   <g id="patch_39">
    <path d="M 576.732273 307.831567 
L 594.429545 307.831567 
L 594.429545 251.97199 
L 576.732273 251.97199 
z
" clip-path="url(#p127efa4f02)" style="fill: #ffa500; stroke: #ffffff; stroke-linejoin: miter"/>
   </g>
   <g id="patch_40">
    <path d="M 612.126818 307.72561 
L 629.824091 307.72561 
L 629.824091 263.738274 
L 612.126818 263.738274 
z
" clip-path="url(#p127efa4f02)" style="fill: #ffa500; stroke: #ffffff; stroke-linejoin: miter"/>
   </g>
   <g id="patch_41">
    <path d="M 647.521364 307.518742 
L 665.218636 307.518742 
L 665.218636 69.867043 
L 647.521364 69.867043 
z
" clip-path="url(#p127efa4f02)" style="fill: #ffa500; stroke: #ffffff; stroke-linejoin: miter"/>
   </g>
   <g id="patch_42">
    <path d="M 682.915909 307.362329 
L 700.613182 307.362329 
L 700.613182 284.041674 
L 682.915909 284.041674 
z
" clip-path="url(#p127efa4f02)" style="fill: #ffa500; stroke: #ffffff; stroke-linejoin: miter"/>
   </g>
   <g id="patch_43">
    <path d="M 718.310455 307.856795 
L 736.007727 307.856795 
L 736.007727 298.865578 
L 718.310455 298.865578 
z
" clip-path="url(#p127efa4f02)" style="fill: #ffa500; stroke: #ffffff; stroke-linejoin: miter"/>
   </g>
   <g id="patch_44">
    <path d="M 753.705 307.831567 
L 771.402273 307.831567 
L 771.402273 305.959658 
L 753.705 305.959658 
z
" clip-path="url(#p127efa4f02)" style="fill: #ffa500; stroke: #ffffff; stroke-linejoin: miter"/>
   </g>
   <g id="patch_45">
    <path d="M 789.099545 307.781112 
L 806.796818 307.781112 
L 806.796818 284.157722 
L 789.099545 284.157722 
z
" clip-path="url(#p127efa4f02)" style="fill: #ffa500; stroke: #ffffff; stroke-linejoin: miter"/>
   </g>
   <g id="patch_46">
    <path d="M 824.494091 307.836613 
L 842.191364 307.836613 
L 842.191364 301.398457 
L 824.494091 301.398457 
z
" clip-path="url(#p127efa4f02)" style="fill: #ffa500; stroke: #ffffff; stroke-linejoin: miter"/>
   </g>
   <g id="patch_47">
    <path d="M 81.208636 306.9385 
L 98.905909 306.9385 
L 98.905909 305.434918 
L 81.208636 305.434918 
z
" clip-path="url(#p127efa4f02)" style="fill: #b0b0b0; stroke: #ffffff; stroke-linejoin: miter"/>
   </g>
   <g id="patch_48">
    <path d="M 116.603182 307.841658 
L 134.300455 307.841658 
L 134.300455 168.069098 
L 116.603182 168.069098 
z
" clip-path="url(#p127efa4f02)" style="fill: #b0b0b0; stroke: #ffffff; stroke-linejoin: miter"/>
   </g>
   <g id="patch_49">
    <path d="M 151.997727 242.647765 
L 169.695 242.647765 
L 169.695 206.753533 
L 151.997727 206.753533 
z
" clip-path="url(#p127efa4f02)" style="fill: #b0b0b0; stroke: #ffffff; stroke-linejoin: miter"/>
   </g>
   <g id="patch_50">
    <path d="M 187.392273 291.948092 
L 205.089545 291.948092 
L 205.089545 279.424972 
L 187.392273 279.424972 
z
" clip-path="url(#p127efa4f02)" style="fill: #b0b0b0; stroke: #ffffff; stroke-linejoin: miter"/>
   </g>
   <g id="patch_51">
    <path d="M 222.786818 197.631131 
L 240.484091 197.631131 
L 240.484091 177.302503 
L 222.786818 177.302503 
z
" clip-path="url(#p127efa4f02)" style="fill: #b0b0b0; stroke: #ffffff; stroke-linejoin: miter"/>
   </g>
   <g id="patch_52">
    <path d="M 258.181364 290.949068 
L 275.878636 290.949068 
L 275.878636 279.556157 
L 258.181364 279.556157 
z
" clip-path="url(#p127efa4f02)" style="fill: #b0b0b0; stroke: #ffffff; stroke-linejoin: miter"/>
   </g>
   <g id="patch_53">
    <path d="M 293.575909 254.091132 
L 311.273182 254.091132 
L 311.273182 210.22489 
L 293.575909 210.22489 
z
" clip-path="url(#p127efa4f02)" style="fill: #b0b0b0; stroke: #ffffff; stroke-linejoin: miter"/>
   </g>
   <g id="patch_54">
    <path d="M 328.970455 307.528833 
L 346.667727 307.528833 
L 346.667727 126.266497 
L 328.970455 126.266497 
z
" clip-path="url(#p127efa4f02)" style="fill: #b0b0b0; stroke: #ffffff; stroke-linejoin: miter"/>
   </g>
   <g id="patch_55">
    <path d="M 364.365 300.702168 
L 382.062273 300.702168 
L 382.062273 298.335792 
L 364.365 298.335792 
z
" clip-path="url(#p127efa4f02)" style="fill: #b0b0b0; stroke: #ffffff; stroke-linejoin: miter"/>
   </g>
   <g id="patch_56">
    <path d="M 399.759545 307.710473 
L 417.456818 307.710473 
L 417.456818 307.50865 
L 399.759545 307.50865 
z
" clip-path="url(#p127efa4f02)" style="fill: #b0b0b0; stroke: #ffffff; stroke-linejoin: miter"/>
   </g>
   <g id="patch_57">
    <path d="M 435.154091 136.690658 
L 452.851364 136.690658 
L 452.851364 42.656249 
L 435.154091 42.656249 
z
" clip-path="url(#p127efa4f02)" style="fill: #b0b0b0; stroke: #ffffff; stroke-linejoin: miter"/>
   </g>
   <g id="patch_58">
    <path d="M 470.548636 286.256682 
L 488.245909 286.256682 
L 488.245909 271.276366 
L 470.548636 271.276366 
z
" clip-path="url(#p127efa4f02)" style="fill: #b0b0b0; stroke: #ffffff; stroke-linejoin: miter"/>
   </g>
   <g id="patch_59">
    <path d="M 505.943182 305.308779 
L 523.640455 305.308779 
L 523.640455 187.978943 
L 505.943182 187.978943 
z
" clip-path="url(#p127efa4f02)" style="fill: #b0b0b0; stroke: #ffffff; stroke-linejoin: miter"/>
   </g>
   <g id="patch_60">
    <path d="M 541.337727 238.964494 
L 559.035 238.964494 
L 559.035 221.703576 
L 541.337727 221.703576 
z
" clip-path="url(#p127efa4f02)" style="fill: #b0b0b0; stroke: #ffffff; stroke-linejoin: miter"/>
   </g>
   <g id="patch_61">
    <path d="M 576.732273 251.97199 
L 594.429545 251.97199 
L 594.429545 243.273416 
L 576.732273 243.273416 
z
" clip-path="url(#p127efa4f02)" style="fill: #b0b0b0; stroke: #ffffff; stroke-linejoin: miter"/>
   </g>
   <g id="patch_62">
    <path d="M 612.126818 263.738274 
L 629.824091 263.738274 
L 629.824091 239.216772 
L 612.126818 239.216772 
z
" clip-path="url(#p127efa4f02)" style="fill: #b0b0b0; stroke: #ffffff; stroke-linejoin: miter"/>
   </g>
   <g id="patch_63">
    <path d="M 647.521364 69.867043 
L 665.218636 69.867043 
L 665.218636 41.631997 
L 647.521364 41.631997 
z
" clip-path="url(#p127efa4f02)" style="fill: #b0b0b0; stroke: #ffffff; stroke-linejoin: miter"/>
   </g>
   <g id="patch_64">
    <path d="M 682.915909 284.041674 
L 700.613182 284.041674 
L 700.613182 275.242189 
L 682.915909 275.242189 
z
" clip-path="url(#p127efa4f02)" style="fill: #b0b0b0; stroke: #ffffff; stroke-linejoin: miter"/>
   </g>
   <g id="patch_65">
    <path d="M 718.310455 298.865578 
L 736.007727 298.865578 
L 736.007727 295.288264 
L 718.310455 295.288264 
z
" clip-path="url(#p127efa4f02)" style="fill: #b0b0b0; stroke: #ffffff; stroke-linejoin: miter"/>
   </g>
   <g id="patch_66">
    <path d="M 753.705 305.959658 
L 771.402273 305.959658 
L 771.402273 305.450055 
L 753.705 305.450055 
z
" clip-path="url(#p127efa4f02)" style="fill: #b0b0b0; stroke: #ffffff; stroke-linejoin: miter"/>
   </g>
   <g id="patch_67">
    <path d="M 789.099545 284.157722 
L 806.796818 284.157722 
L 806.796818 268.324703 
L 789.099545 268.324703 
z
" clip-path="url(#p127efa4f02)" style="fill: #b0b0b0; stroke: #ffffff; stroke-linejoin: miter"/>
   </g>
   <g id="patch_68">
    <path d="M 824.494091 301.398457 
L 842.191364 301.398457 
L 842.191364 297.372087 
L 824.494091 297.372087 
z
" clip-path="url(#p127efa4f02)" style="fill: #b0b0b0; stroke: #ffffff; stroke-linejoin: miter"/>
   </g>
   <g id="patch_69">
    <path d="M 72.36 307.871932 
L 72.36 28.32 
" style="fill: none; stroke: #cccccc; stroke-width: 1.25; stroke-linejoin: miter; stroke-linecap: square"/>
   </g>
   <g id="patch_70">
    <path d="M 851.04 307.871932 
L 851.04 28.32 
" style="fill: none; stroke: #cccccc; stroke-width: 1.25; stroke-linejoin: miter; stroke-linecap: square"/>
   </g>
   <g id="patch_71">
    <path d="M 72.36 307.871932 
L 851.04 307.871932 
" style="fill: none; stroke: #cccccc; stroke-width: 1.25; stroke-linejoin: miter; stroke-linecap: square"/>
   </g>
   <g id="patch_72">
    <path d="M 72.36 28.32 
L 851.04 28.32 
" style="fill: none; stroke: #cccccc; stroke-width: 1.25; stroke-linejoin: miter; stroke-linecap: square"/>
   </g>
   <g id="text_31">
    <!-- Proportion de virus complets vs incomplets par cosystme -->
    <g style="fill: #262626" transform="translate(282.218437 22.32) scale(0.12 -0.12)">
     <defs>
      <path id="DejaVuSans-50" d="M 1259 4147 
L 1259 2394 
L 2053 2394 
Q 2494 2394 2734 2622 
Q 2975 2850 2975 3272 
Q 2975 3691 2734 3919 
Q 2494 4147 2053 4147 
L 1259 4147 
z
M 628 4666 
L 2053 4666 
Q 2838 4666 3239 4311 
Q 3641 3956 3641 3272 
Q 3641 2581 3239 2228 
Q 2838 1875 2053 1875 
L 1259 1875 
L 1259 0 
L 628 0 
L 628 4666 
z
" transform="scale(0.015625)"/>
      <path id="DejaVuSans-e9" d="M 3597 1894 
L 3597 1613 
L 953 1613 
Q 991 1019 1311 708 
Q 1631 397 2203 397 
Q 2534 397 2845 478 
Q 3156 559 3463 722 
L 3463 178 
Q 3153 47 2828 -22 
Q 2503 -91 2169 -91 
Q 1331 -91 842 396 
Q 353 884 353 1716 
Q 353 2575 817 3079 
Q 1281 3584 2069 3584 
Q 2775 3584 3186 3129 
Q 3597 2675 3597 1894 
z
M 3022 2063 
Q 3016 2534 2758 2815 
Q 2500 3097 2075 3097 
Q 1594 3097 1305 2825 
Q 1016 2553 972 2059 
L 3022 2063 
z
M 2469 5119 
L 3091 5119 
L 2072 3944 
L 1594 3944 
L 2469 5119 
z
" transform="scale(0.015625)"/>
      <path id="DejaVuSans-e8" d="M 3597 1894 
L 3597 1613 
L 953 1613 
Q 991 1019 1311 708 
Q 1631 397 2203 397 
Q 2534 397 2845 478 
Q 3156 559 3463 722 
L 3463 178 
Q 3153 47 2828 -22 
Q 2503 -91 2169 -91 
Q 1331 -91 842 396 
Q 353 884 353 1716 
Q 353 2575 817 3079 
Q 1281 3584 2069 3584 
Q 2775 3584 3186 3129 
Q 3597 2675 3597 1894 
z
M 3022 2063 
Q 3016 2534 2758 2815 
Q 2500 3097 2075 3097 
Q 1594 3097 1305 2825 
Q 1016 2553 972 2059 
L 3022 2063 
z
M 1581 5119 
L 2463 3950 
L 1984 3950 
L 966 5119 
L 1581 5119 
z
" transform="scale(0.015625)"/>
     </defs>
     <use xlink:href="#DejaVuSans-50"/>
     <use xlink:href="#DejaVuSans-72" transform="translate(58.552734 0)"/>
     <use xlink:href="#DejaVuSans-6f" transform="translate(97.416016 0)"/>
     <use xlink:href="#DejaVuSans-70" transform="translate(158.597656 0)"/>
     <use xlink:href="#DejaVuSans-6f" transform="translate(222.074219 0)"/>
     <use xlink:href="#DejaVuSans-72" transform="translate(283.255859 0)"/>
     <use xlink:href="#DejaVuSans-74" transform="translate(324.369141 0)"/>
     <use xlink:href="#DejaVuSans-69" transform="translate(363.578125 0)"/>
     <use xlink:href="#DejaVuSans-6f" transform="translate(391.361328 0)"/>
     <use xlink:href="#DejaVuSans-6e" transform="translate(452.542969 0)"/>
     <use xlink:href="#DejaVuSans-20" transform="translate(515.921875 0)"/>
     <use xlink:href="#DejaVuSans-64" transform="translate(547.708984 0)"/>
     <use xlink:href="#DejaVuSans-65" transform="translate(611.185547 0)"/>
     <use xlink:href="#DejaVuSans-20" transform="translate(672.708984 0)"/>
     <use xlink:href="#DejaVuSans-76" transform="translate(704.496094 0)"/>
     <use xlink:href="#DejaVuSans-69" transform="translate(763.675781 0)"/>
     <use xlink:href="#DejaVuSans-72" transform="translate(791.458984 0)"/>
     <use xlink:href="#DejaVuSans-75" transform="translate(832.572266 0)"/>
     <use xlink:href="#DejaVuSans-73" transform="translate(895.951172 0)"/>
     <use xlink:href="#DejaVuSans-20" transform="translate(948.050781 0)"/>
     <use xlink:href="#DejaVuSans-63" transform="translate(979.837891 0)"/>
     <use xlink:href="#DejaVuSans-6f" transform="translate(1034.818359 0)"/>
     <use xlink:href="#DejaVuSans-6d" transform="translate(1096 0)"/>
     <use xlink:href="#DejaVuSans-70" transform="translate(1193.412109 0)"/>
     <use xlink:href="#DejaVuSans-6c" transform="translate(1256.888672 0)"/>
     <use xlink:href="#DejaVuSans-65" transform="translate(1284.671875 0)"/>
     <use xlink:href="#DejaVuSans-74" transform="translate(1346.195312 0)"/>
     <use xlink:href="#DejaVuSans-73" transform="translate(1385.404297 0)"/>
     <use xlink:href="#DejaVuSans-20" transform="translate(1437.503906 0)"/>
     <use xlink:href="#DejaVuSans-76" transform="translate(1469.291016 0)"/>
     <use xlink:href="#DejaVuSans-73" transform="translate(1528.470703 0)"/>
     <use xlink:href="#DejaVuSans-20" transform="translate(1580.570312 0)"/>
     <use xlink:href="#DejaVuSans-69" transform="translate(1612.357422 0)"/>
     <use xlink:href="#DejaVuSans-6e" transform="translate(1640.140625 0)"/>
     <use xlink:href="#DejaVuSans-63" transform="translate(1703.519531 0)"/>
     <use xlink:href="#DejaVuSans-6f" transform="translate(1758.5 0)"/>
     <use xlink:href="#DejaVuSans-6d" transform="translate(1819.681641 0)"/>
     <use xlink:href="#DejaVuSans-70" transform="translate(1917.09375 0)"/>
     <use xlink:href="#DejaVuSans-6c" transform="translate(1980.570312 0)"/>
     <use xlink:href="#DejaVuSans-65" transform="translate(2008.353516 0)"/>
     <use xlink:href="#DejaVuSans-74" transform="translate(2069.876953 0)"/>
     <use xlink:href="#DejaVuSans-73" transform="translate(2109.085938 0)"/>
     <use xlink:href="#DejaVuSans-20" transform="translate(2161.185547 0)"/>
     <use xlink:href="#DejaVuSans-70" transform="translate(2192.972656 0)"/>
     <use xlink:href="#DejaVuSans-61" transform="translate(2256.449219 0)"/>
     <use xlink:href="#DejaVuSans-72" transform="translate(2317.728516 0)"/>
     <use xlink:href="#DejaVuSans-20" transform="translate(2358.841797 0)"/>
     <use xlink:href="#DejaVuSans-e9" transform="translate(2390.628906 0)"/>
     <use xlink:href="#DejaVuSans-63" transform="translate(2452.152344 0)"/>
     <use xlink:href="#DejaVuSans-6f" transform="translate(2507.132812 0)"/>
     <use xlink:href="#DejaVuSans-73" transform="translate(2568.314453 0)"/>
     <use xlink:href="#DejaVuSans-79" transform="translate(2620.414062 0)"/>
     <use xlink:href="#DejaVuSans-73" transform="translate(2679.59375 0)"/>
     <use xlink:href="#DejaVuSans-74" transform="translate(2731.693359 0)"/>
     <use xlink:href="#DejaVuSans-e8" transform="translate(2770.902344 0)"/>
     <use xlink:href="#DejaVuSans-6d" transform="translate(2832.425781 0)"/>
     <use xlink:href="#DejaVuSans-65" transform="translate(2929.837891 0)"/>
    </g>
   </g>
   <g id="legend_1">
    <g id="patch_73">
     <path d="M 708.344375 103.151563 
L 843.34 103.151563 
Q 845.54 103.151563 845.54 100.951563 
L 845.54 36.02 
Q 845.54 33.82 843.34 33.82 
L 708.344375 33.82 
Q 706.144375 33.82 706.144375 36.02 
L 706.144375 100.951563 
Q 706.144375 103.151563 708.344375 103.151563 
z
" style="fill: #ffffff; opacity: 0.8; stroke: #cccccc; stroke-linejoin: miter"/>
    </g>
    <g id="text_32">
     <!-- Statut de compltude -->
     <g style="fill: #262626" transform="translate(710.544375 47.818125) scale(0.12 -0.12)">
      <use xlink:href="#DejaVuSans-53"/>
      <use xlink:href="#DejaVuSans-74" transform="translate(63.476562 0)"/>
      <use xlink:href="#DejaVuSans-61" transform="translate(102.685547 0)"/>
      <use xlink:href="#DejaVuSans-74" transform="translate(163.964844 0)"/>
      <use xlink:href="#DejaVuSans-75" transform="translate(203.173828 0)"/>
      <use xlink:href="#DejaVuSans-74" transform="translate(266.552734 0)"/>
      <use xlink:href="#DejaVuSans-20" transform="translate(305.761719 0)"/>
      <use xlink:href="#DejaVuSans-64" transform="translate(337.548828 0)"/>
      <use xlink:href="#DejaVuSans-65" transform="translate(401.025391 0)"/>
      <use xlink:href="#DejaVuSans-20" transform="translate(462.548828 0)"/>
      <use xlink:href="#DejaVuSans-63" transform="translate(494.335938 0)"/>
      <use xlink:href="#DejaVuSans-6f" transform="translate(549.316406 0)"/>
      <use xlink:href="#DejaVuSans-6d" transform="translate(610.498047 0)"/>
      <use xlink:href="#DejaVuSans-70" transform="translate(707.910156 0)"/>
      <use xlink:href="#DejaVuSans-6c" transform="translate(771.386719 0)"/>
      <use xlink:href="#DejaVuSans-e9" transform="translate(799.169922 0)"/>
      <use xlink:href="#DejaVuSans-74" transform="translate(860.693359 0)"/>
      <use xlink:href="#DejaVuSans-75" transform="translate(899.902344 0)"/>
      <use xlink:href="#DejaVuSans-64" transform="translate(963.28125 0)"/>
      <use xlink:href="#DejaVuSans-65" transform="translate(1026.757812 0)"/>
     </g>
    </g>
    <g id="patch_74">
     <path d="M 729.643047 64.172031 
L 751.643047 64.172031 
L 751.643047 56.472031 
L 729.643047 56.472031 
z
" style="fill: #1e90ff; stroke: #ffffff; stroke-linejoin: miter"/>
    </g>
    <g id="text_33">
     <!-- Complete -->
     <g style="fill: #262626" transform="translate(760.443047 64.172031) scale(0.11 -0.11)">
      <defs>
       <path id="DejaVuSans-43" d="M 4122 4306 
L 4122 3641 
Q 3803 3938 3442 4084 
Q 3081 4231 2675 4231 
Q 1875 4231 1450 3742 
Q 1025 3253 1025 2328 
Q 1025 1406 1450 917 
Q 1875 428 2675 428 
Q 3081 428 3442 575 
Q 3803 722 4122 1019 
L 4122 359 
Q 3791 134 3420 21 
Q 3050 -91 2638 -91 
Q 1578 -91 968 557 
Q 359 1206 359 2328 
Q 359 3453 968 4101 
Q 1578 4750 2638 4750 
Q 3056 4750 3426 4639 
Q 3797 4528 4122 4306 
z
" transform="scale(0.015625)"/>
      </defs>
      <use xlink:href="#DejaVuSans-43"/>
      <use xlink:href="#DejaVuSans-6f" transform="translate(69.824219 0)"/>
      <use xlink:href="#DejaVuSans-6d" transform="translate(131.005859 0)"/>
      <use xlink:href="#DejaVuSans-70" transform="translate(228.417969 0)"/>
      <use xlink:href="#DejaVuSans-6c" transform="translate(291.894531 0)"/>
      <use xlink:href="#DejaVuSans-65" transform="translate(319.677734 0)"/>
      <use xlink:href="#DejaVuSans-74" transform="translate(381.201172 0)"/>
      <use xlink:href="#DejaVuSans-65" transform="translate(420.410156 0)"/>
     </g>
    </g>
    <g id="patch_75">
     <path d="M 729.643047 80.317969 
L 751.643047 80.317969 
L 751.643047 72.617969 
L 729.643047 72.617969 
z
" style="fill: #ffa500; stroke: #ffffff; stroke-linejoin: miter"/>
    </g>
    <g id="text_34">
     <!-- Incomplete -->
     <g style="fill: #262626" transform="translate(760.443047 80.317969) scale(0.11 -0.11)">
      <defs>
       <path id="DejaVuSans-49" d="M 628 4666 
L 1259 4666 
L 1259 0 
L 628 0 
L 628 4666 
z
" transform="scale(0.015625)"/>
      </defs>
      <use xlink:href="#DejaVuSans-49"/>
      <use xlink:href="#DejaVuSans-6e" transform="translate(29.492188 0)"/>
      <use xlink:href="#DejaVuSans-63" transform="translate(92.871094 0)"/>
      <use xlink:href="#DejaVuSans-6f" transform="translate(147.851562 0)"/>
      <use xlink:href="#DejaVuSans-6d" transform="translate(209.033203 0)"/>
      <use xlink:href="#DejaVuSans-70" transform="translate(306.445312 0)"/>
      <use xlink:href="#DejaVuSans-6c" transform="translate(369.921875 0)"/>
      <use xlink:href="#DejaVuSans-65" transform="translate(397.705078 0)"/>
      <use xlink:href="#DejaVuSans-74" transform="translate(459.228516 0)"/>
      <use xlink:href="#DejaVuSans-65" transform="translate(498.4375 0)"/>
     </g>
    </g>
    <g id="patch_76">
     <path d="M 729.643047 96.463906 
L 751.643047 96.463906 
L 751.643047 88.763906 
L 729.643047 88.763906 
z
" style="fill: #b0b0b0; stroke: #ffffff; stroke-linejoin: miter"/>
    </g>
    <g id="text_35">
     <!-- Unknown -->
     <g style="fill: #262626" transform="translate(760.443047 96.463906) scale(0.11 -0.11)">
      <defs>
       <path id="DejaVuSans-55" d="M 556 4666 
L 1191 4666 
L 1191 1831 
Q 1191 1081 1462 751 
Q 1734 422 2344 422 
Q 2950 422 3222 751 
Q 3494 1081 3494 1831 
L 3494 4666 
L 4128 4666 
L 4128 1753 
Q 4128 841 3676 375 
Q 3225 -91 2344 -91 
Q 1459 -91 1007 375 
Q 556 841 556 1753 
L 556 4666 
z
" transform="scale(0.015625)"/>
      </defs>
      <use xlink:href="#DejaVuSans-55"/>
      <use xlink:href="#DejaVuSans-6e" transform="translate(73.193359 0)"/>
      <use xlink:href="#DejaVuSans-6b" transform="translate(136.572266 0)"/>
      <use xlink:href="#DejaVuSans-6e" transform="translate(194.482422 0)"/>
      <use xlink:href="#DejaVuSans-6f" transform="translate(257.861328 0)"/>
      <use xlink:href="#DejaVuSans-77" transform="translate(319.042969 0)"/>
      <use xlink:href="#DejaVuSans-6e" transform="translate(400.830078 0)"/>
     </g>
    </g>
   </g>
  </g>
 </g>
 <defs>
  <clipPath id="p127efa4f02">
   <rect x="72.36" y="28.32" width="778.68" height="279.551932"/>
  </clipPath>
 </defs>
</svg>
